<mxfile host="app.diagrams.net" modified="2020-11-08T09:30:08.696Z" agent="5.0 (iPad; CPU OS 14_0 like Mac OS X) AppleWebKit/605.1.15 (KHTML, like Gecko) CriOS/86.0.4240.93 Mobile/15E148 Safari/604.1" etag="Pz9vAqm3NkRnWdWqbWpB" version="13.9.2" type="github">
  <diagram id="mXG4PAfmD-UgTnTKrAta" name="Page-1">
    <mxGraphModel dx="496" dy="419" grid="1" gridSize="10" guides="1" tooltips="1" connect="1" arrows="1" fold="1" page="1" pageScale="1" pageWidth="850" pageHeight="1100" math="0" shadow="0">
      <root>
        <mxCell id="0" />
        <mxCell id="1" parent="0" />
        <mxCell id="Y2b7x41vzCOfhbko_v__-1" value="Workspace" style="whiteSpace=wrap;html=1;aspect=fixed;" vertex="1" parent="1">
          <mxGeometry x="120" y="110" width="80" height="80" as="geometry" />
        </mxCell>
        <mxCell id="Y2b7x41vzCOfhbko_v__-4" value="Github" style="shape=cylinder3;whiteSpace=wrap;html=1;boundedLbl=1;backgroundOutline=1;size=15;" vertex="1" parent="1">
          <mxGeometry x="380" y="50" width="110" height="80" as="geometry" />
        </mxCell>
        <mxCell id="Y2b7x41vzCOfhbko_v__-5" value="Pi server" style="aspect=fixed;perimeter=ellipsePerimeter;html=1;align=center;shadow=0;dashed=0;spacingTop=3;image;image=img/lib/active_directory/folder_open.svg;" vertex="1" parent="1">
          <mxGeometry x="402" y="150" width="46" height="50" as="geometry" />
        </mxCell>
      </root>
    </mxGraphModel>
  </diagram>
</mxfile>
